<svg id="Capa_1" enable-background="new 0 0 512 512" height="512" viewBox="0 0 512 512" width="512" xmlns="http://www.w3.org/2000/svg"><g><g><path d="m404.508 37.214h-266.875v247h263.5l6.367-4.628v-238.669z" fill="#dbedff"/><path d="m141.25 40.917 4.634-3.703h-36.751l-4.633 3.703v238.669l5.3 4.628h36.75l-5.3-4.628z" fill="#b5dcff"/><path d="m233.54 70.917h-91.582c-4.119 0-7.459 3.34-7.459 7.459v201.21l2.317 4.627h101.37l2.813-4.627v-201.21c.001-4.119-3.339-7.459-7.459-7.459z" fill="#8bcaff"/><path d="m170.541 78.376c0-4.119 3.34-7.459 7.459-7.459h-36.042c-4.119 0-7.459 3.34-7.459 7.459v201.21l2.317 4.627h36.042l-2.317-4.627z" fill="#60b9fe"/><path d="m370.041 70.917h-91.582c-4.12 0-7.459 3.34-7.459 7.459v201.21l3.146 4.627h99.154l4.2-4.627v-201.21c0-4.119-3.34-7.459-7.459-7.459z" fill="#8bcaff"/><path d="m307.041 78.376c0-4.119 3.34-7.459 7.459-7.459h-36.042c-4.12 0-7.459 3.34-7.459 7.459v201.21l3.146 4.627h36.042l-3.146-4.627z" fill="#60b9fe"/><path d="m478.133 306.714h-411.5v169h417.667l4.403-4.98v-157.934z" fill="#ffe02f"/><path d="m69.962 312.8 12.338-6.086h-46.667l-12.337 6.086v157.934l2.837 4.98h46.667l-2.838-4.98z" fill="#fbc700"/><path d="m496.703 279.586c-12.166 0-472.224 0-481.408 0-4.306 0-7.796 3.49-7.796 7.796v17.622c0 4.306 3.49 7.796 7.796 7.796h481.408c4.306 0 7.796-3.49 7.796-7.796v-17.622c0-4.305-3.49-7.796-7.796-7.796z" fill="#fff1af"/><path d="m54.166 305.004v-17.622c0-4.306 3.49-7.796 7.796-7.796-27.425 0-44.947 0-46.667 0-4.306 0-7.796 3.49-7.796 7.796v17.622c0 4.306 3.49 7.796 7.796 7.796h46.667c-4.306 0-7.796-3.49-7.796-7.796z" fill="#ffeb7e"/><path d="m496.703 471.286c-12.166 0-472.224 0-481.408 0-4.306 0-7.796 3.49-7.796 7.796v17.622c0 4.306 3.49 7.796 7.796 7.796h481.408c4.306 0 7.796-3.49 7.796-7.796v-17.622c0-4.306-3.49-7.796-7.796-7.796z" fill="#fff1af"/><path d="m54.166 496.704v-17.622c0-4.306 3.49-7.796 7.796-7.796-27.425 0-44.947 0-46.667 0-4.306 0-7.796 3.49-7.796 7.796v17.622c0 4.306 3.49 7.796 7.796 7.796h46.667c-4.306 0-7.796-3.49-7.796-7.796z" fill="#ffeb7e"/><path d="m418.204 7.5h-282.291l-5.155 4.964v25.625l3.969 2.829h283.477c4.306 0 7.796-3.512 7.796-7.844v-17.73c0-4.332-3.491-7.844-7.796-7.844z" fill="#ffe02f"/><g fill="#fbc700"><path d="m132.838 33.074v-17.73c0-4.332 3.49-7.844 7.796-7.844h-46.838c-4.306 0-7.796 3.512-7.796 7.844v17.73c0 4.332 3.49 7.844 7.796 7.844h46.838c-4.306-.001-7.796-3.512-7.796-7.844z"/><path d="m86.645 348.882h-18.99c-4.64 0-8.401 3.761-8.401 8.401v69.52c0 4.64 3.761 8.401 8.401 8.401h18.99c4.64 0 8.401-3.761 8.401-8.401 0-5.609 0-28.287 0-69.52 0-4.64-3.762-8.401-8.401-8.401z"/><path d="m158.395 348.882h-18.99c-4.64 0-8.401 3.761-8.401 8.401v69.52c0 4.64 3.761 8.401 8.401 8.401h18.99c4.64 0 8.401-3.761 8.401-8.401 0-5.609 0-28.287 0-69.52 0-4.64-3.761-8.401-8.401-8.401z"/><path d="m229.785 348.882h-18.99c-4.64 0-8.401 3.761-8.401 8.401v69.52c0 4.64 3.761 8.401 8.401 8.401h18.99c4.64 0 8.401-3.761 8.401-8.401 0-5.609 0-28.287 0-69.52.001-4.64-3.761-8.401-8.401-8.401z"/><path d="m301.536 348.882h-18.99c-4.64 0-8.401 3.761-8.401 8.401v69.52c0 4.64 3.761 8.401 8.401 8.401h18.99c4.64 0 8.401-3.761 8.401-8.401 0-5.609 0-28.287 0-69.52 0-4.64-3.761-8.401-8.401-8.401z"/><path d="m373.12 348.882h-18.99c-4.64 0-8.401 3.761-8.401 8.401v69.52c0 4.64 3.761 8.401 8.401 8.401h18.99c4.64 0 8.401-3.761 8.401-8.401 0-5.609 0-28.287 0-69.52 0-4.64-3.761-8.401-8.401-8.401z"/><path d="m444.51 348.882h-18.99c-4.64 0-8.401 3.761-8.401 8.401v69.52c0 4.64 3.761 8.401 8.401 8.401h18.99c4.64 0 8.401-3.761 8.401-8.401 0-5.609 0-28.287 0-69.52 0-4.64-3.761-8.401-8.401-8.401z"/></g><path d="m77.317 426.803c0-2.337 0-25.764 0-69.52 0-4.64 3.761-8.401 8.401-8.401h-18.063c-4.64 0-8.401 3.761-8.401 8.401v69.52c0 4.64 3.761 8.401 8.401 8.401h18.063c-4.64 0-8.401-3.761-8.401-8.401z" fill="#eab900"/><path d="m149.067 426.803c0-2.337 0-25.764 0-69.52 0-4.64 3.761-8.401 8.401-8.401h-18.063c-4.64 0-8.401 3.761-8.401 8.401v69.52c0 4.64 3.761 8.401 8.401 8.401h18.063c-4.64 0-8.401-3.761-8.401-8.401z" fill="#eab900"/><path d="m220.457 426.803c0-2.337 0-25.764 0-69.52 0-4.64 3.761-8.401 8.401-8.401h-18.062c-4.64 0-8.401 3.761-8.401 8.401v69.52c0 4.64 3.761 8.401 8.401 8.401h18.062c-4.639 0-8.401-3.761-8.401-8.401z" fill="#eab900"/><path d="m292.208 426.803c0-2.337 0-25.764 0-69.52 0-4.64 3.761-8.401 8.401-8.401h-18.063c-4.64 0-8.401 3.761-8.401 8.401v69.52c0 4.64 3.761 8.401 8.401 8.401h18.063c-4.64 0-8.401-3.761-8.401-8.401z" fill="#eab900"/><path d="m363.792 426.803c0-2.337 0-25.764 0-69.52 0-4.64 3.761-8.401 8.401-8.401h-18.063c-4.64 0-8.401 3.761-8.401 8.401v69.52c0 4.64 3.761 8.401 8.401 8.401h18.062c-4.639 0-8.4-3.761-8.4-8.401z" fill="#eab900"/><path d="m435.182 426.803c0-2.337 0-25.764 0-69.52 0-4.64 3.761-8.401 8.401-8.401h-18.062c-4.64 0-8.401 3.761-8.401 8.401v69.52c0 4.64 3.761 8.401 8.401 8.401h18.062c-4.64 0-8.401-3.761-8.401-8.401z" fill="#eab900"/></g><g><path d="m496.704 272.086h-81.704v-88.073c0-4.142-3.357-7.5-7.5-7.5s-7.5 3.358-7.5 7.5v88.073h-15v-193.71c0-8.249-6.711-14.959-14.959-14.959h-91.582c-8.248 0-14.959 6.71-14.959 14.959v193.71h-15v-193.71c0-8.249-6.711-14.959-14.959-14.959h-91.582c-8.248 0-14.959 6.71-14.959 14.959v193.71h-15v-223.669h288v100.596c0 4.142 3.357 7.5 7.5 7.5s7.5-3.358 7.5-7.5v-100.596h3.204c8.435 0 15.296-6.883 15.296-15.344v-17.73c0-8.46-6.861-15.343-15.296-15.343h-324.408c-8.435 0-15.296 6.883-15.296 15.344v17.73c0 8.46 6.861 15.344 15.296 15.344h3.204v223.669h-81.704c-8.435-.001-15.296 6.861-15.296 15.295v17.622c0 8.435 6.861 15.296 15.296 15.296h.5v143.486h-.5c-8.435 0-15.296 6.862-15.296 15.296v17.622c0 8.434 6.861 15.296 15.296 15.296h223.204c4.143 0 7.5-3.358 7.5-7.5s-3.357-7.5-7.5-7.5h-223.204c-.163 0-.296-.133-.296-.296v-17.622c0-.163.133-.296.296-.296h481.408c.163 0 .296.133.296.296v17.622c0 .163-.133.296-.296.296h-223.204c-4.143 0-7.5 3.358-7.5 7.5s3.357 7.5 7.5 7.5h223.204c8.435 0 15.296-6.862 15.296-15.296v-17.622c0-8.434-6.861-15.296-15.296-15.296h-.5v-143.486h.5c8.435 0 15.296-6.862 15.296-15.296v-17.622c0-8.434-6.861-15.296-15.296-15.296zm-403.204-239.012v-17.73c0-.212.153-.344.296-.344h324.408c.143 0 .296.131.296.344v17.73c0 .212-.153.344-.296.344-15.367 0-309.051 0-324.408 0-.143-.001-.296-.132-.296-.344zm184.959 45.343 91.541-.041v193.71h-91.502zm-136.5 0 91.541-.041v193.71h-91.502zm339.245 384.817h-450.408v-142.934h450.408zm15.796-158.23c0 .164-.133.296-.296.296-2.824 0-471.153 0-481.408 0-.163 0-.296-.133-.296-.296v-17.622c0-.163.133-.296.296-.296h481.408c.163 0 .296.133.296.296z"/><path d="m67.655 442.704h18.99c8.768 0 15.9-7.133 15.9-15.901v-69.52c0-8.768-7.133-15.901-15.9-15.901h-18.99c-8.768 0-15.9 7.133-15.9 15.901v69.52c0 8.768 7.133 15.901 15.9 15.901zm-.9-85.421c0-.497.404-.901.9-.901h18.99c.496 0 .9.404.9.901v69.52c0 .497-.404.901-.9.901h-18.99c-.496 0-.9-.404-.9-.901z"/><path d="m139.406 442.704h18.989c8.768 0 15.901-7.133 15.901-15.901v-69.52c0-8.768-7.134-15.901-15.901-15.901h-18.989c-8.768 0-15.901 7.133-15.901 15.901v69.52c0 8.768 7.134 15.901 15.901 15.901zm-.901-85.421c0-.497.404-.901.901-.901h18.989c.497 0 .901.404.901.901v69.52c0 .497-.404.901-.901.901h-18.989c-.497 0-.901-.404-.901-.901z"/><path d="m210.796 442.704h18.99c8.768 0 15.901-7.133 15.901-15.901v-69.52c0-8.768-7.134-15.901-15.901-15.901h-18.99c-8.768 0-15.9 7.133-15.9 15.901v69.52c0 8.768 7.132 15.901 15.9 15.901zm-.9-85.421c0-.497.404-.901.9-.901h18.99c.497 0 .901.404.901.901v69.52c0 .497-.404.901-.901.901h-18.99c-.496 0-.9-.404-.9-.901z"/><path d="m282.547 442.704h18.989c8.768 0 15.901-7.133 15.901-15.901v-69.52c0-8.768-7.134-15.901-15.901-15.901h-18.989c-8.768 0-15.901 7.133-15.901 15.901v69.52c0 8.768 7.133 15.901 15.901 15.901zm-.901-85.421c0-.497.404-.901.901-.901h18.989c.497 0 .901.404.901.901v69.52c0 .497-.404.901-.901.901h-18.989c-.497 0-.901-.404-.901-.901z"/><path d="m354.131 442.704h18.989c8.768 0 15.901-7.133 15.901-15.901v-69.52c0-8.768-7.134-15.901-15.901-15.901h-18.989c-8.768 0-15.901 7.133-15.901 15.901v69.52c-.001 8.768 7.133 15.901 15.901 15.901zm-.902-85.421c0-.497.404-.901.901-.901h18.989c.497 0 .901.404.901.901v69.52c0 .497-.404.901-.901.901h-18.989c-.497 0-.901-.404-.901-.901z"/><path d="m425.521 442.704h18.989c8.768 0 15.901-7.133 15.901-15.901v-69.52c0-8.768-7.134-15.901-15.901-15.901h-18.989c-8.768 0-15.901 7.133-15.901 15.901v69.52c0 8.768 7.134 15.901 15.901 15.901zm-.901-85.421c0-.497.404-.901.901-.901h18.989c.497 0 .901.404.901.901v69.52c0 .497-.404.901-.901.901h-18.989c-.497 0-.901-.404-.901-.901z"/><path d="m316.411 107.268c-2.93-2.929-7.678-2.929-10.607 0s-2.929 7.678 0 10.606l23.512 23.512c2.93 2.929 7.678 2.929 10.607 0s2.929-7.678 0-10.606z"/><path d="m342.604 92.832c-2.93-2.929-7.678-2.929-10.607 0s-2.929 7.678 0 10.606l11.756 11.756c2.93 2.929 7.678 2.929 10.607 0s2.929-7.678 0-10.606z"/></g></g></svg>