<svg id="Capa_1" enable-background="new 0 0 512 512" height="512" viewBox="0 0 512 512" width="512" xmlns="http://www.w3.org/2000/svg"><g><g><g><path d="m463.019 512h-414.038c-8.284 0-15-6.716-15-15v-305.022l222.019-127.469 222.019 127.469v305.022c0 8.284-6.716 15-15 15z" fill="#fbf4f4"/><path d="m256 64.509-.063.036v447.455h207.082c8.284 0 15-6.716 15-15v-305.023z" fill="#e9e4f0"/></g><g><g><g><circle cx="256" cy="199.535" fill="#b68661" r="60.04"/><path d="m256 139.495c-.021 0-.042.001-.063.001v120.077c.021 0 .042.001.063.001 33.106 0 60.04-26.934 60.04-60.04 0-33.105-26.934-60.039-60.04-60.039z" fill="#8e5f4f"/></g><g><path d="m256 229.576c-16.591 0-30.04-13.449-30.04-30.04 0-16.591 13.449-30.04 30.04-30.04 16.591 0 30.04 13.449 30.04 30.04 0 16.59-13.449 30.04-30.04 30.04z" fill="#a3bbfa"/><path d="m256 169.496c-.021 0-.042.001-.063.001v60.077c.021 0 .042.002.063.002 16.591 0 30.04-13.449 30.04-30.04 0-16.591-13.449-30.04-30.04-30.04z" fill="#799af8"/></g></g><g><g><path d="m314.417 347.101h115.864v114.291h-115.864z" fill="#a3bbfa" transform="matrix(0 1 -1 0 776.595 31.897)"/><path d="m439.682 327.088h-134.666c-5.072 0-9.184 4.112-9.184 9.184v135.948c0 5.072 4.112 9.184 9.184 9.184h134.667c5.072 0 9.184-4.112 9.184-9.184v-135.948c-.001-5.072-4.113-9.184-9.185-9.184zm-20.816 62.158h-31.518v-32.157h31.518zm-61.517-32.158v32.157h-31.517v-32.157zm-31.517 62.158h31.517v32.158h-31.517zm61.517 32.158v-32.158h31.518v32.158z" fill="#455bf5"/></g><g><path d="m222.526 512h-119.392v-169.912c0-8.284 6.716-15 15-15h89.392c8.284 0 15 6.716 15 15z" fill="#b68661"/><circle cx="189.526" cy="424.581" fill="#8e5f4f" r="15"/></g></g></g></g><g><path d="m478.655 135.793h-84.732v-120.793c0-8.284 6.716-15 15-15h54.732c8.284 0 15 6.716 15 15z" fill="#e9e4f0"/><g><path d="m0 193.351v-39.764c0-5.372 2.873-10.334 7.531-13.008l241.384-138.587c4.625-2.655 10.312-2.655 14.937 0l240.617 138.147c4.659 2.675 7.531 7.636 7.531 13.008v39.764c0 11.531-12.469 18.75-22.469 13.008l-225.679-129.571c-4.625-2.655-10.312-2.655-14.937 0l-226.446 130.011c-10 5.741-22.469-1.477-22.469-13.008z" fill="#e28658"/><path d="m504.469 140.138-240.617-138.146c-2.446-1.404-5.189-2.058-7.915-1.977v74.357c2.726-.081 5.469.573 7.915 1.977l225.68 129.571c10 5.741 22.469-1.478 22.469-13.008v-39.764c-.001-5.373-2.874-10.335-7.532-13.01z" fill="#db5053"/></g></g></g></svg>