<svg id="Capa_1" enable-background="new 0 0 512 512" height="512" viewBox="0 0 512 512" width="512" xmlns="http://www.w3.org/2000/svg" xmlns:xlink="http://www.w3.org/1999/xlink"><linearGradient id="SVGID_1_" gradientUnits="userSpaceOnUse" x1="256" x2="256" y1="512" y2="0"><stop offset="0" stop-color="#ffe59a"/><stop offset="1" stop-color="#ffffd5"/></linearGradient><linearGradient id="SVGID_2_" gradientUnits="userSpaceOnUse" x1="256" x2="256" y1="407" y2="105"><stop offset="0" stop-color="#ffde00"/><stop offset="1" stop-color="#fd5900"/></linearGradient><g><g><circle cx="256" cy="256" fill="url(#SVGID_1_)" r="256"/></g><g><g><path d="m300.412 371.471h17.765v-53.294h-17.765zm-44.412 17.764h-53.294v-142.117h-35.529v159.882h88.824c4.91 0 8.882-3.973 8.882-8.882-.001-4.91-3.973-8.883-8.883-8.883zm-26.647-168.764v-106.589c0-4.91-3.973-8.882-8.882-8.882h-71.059c-4.91 0-8.882 3.973-8.882 8.882v106.588c0 4.91 3.973 8.882 8.882 8.882h71.059c4.909.001 8.882-3.972 8.882-8.881zm-35.529-35.53c0 4.91-3.973 8.882-8.882 8.882-4.91 0-8.882-3.973-8.882-8.882v-35.529c0-4.91 3.973-8.882 8.882-8.882 4.91 0 8.882 3.973 8.882 8.882zm-88.824 142.118v71.059c0 4.91 3.973 8.882 8.882 8.882h35.529v-88.824h-35.529c-4.909 0-8.882 3.973-8.882 8.883zm8.882-142.118h8.882v-35.529h-8.882c-4.91 0-8.882 3.973-8.882 8.882v17.765c0 4.909 3.973 8.882 8.882 8.882zm284.236-35.529h-151v35.529h53.294v31.852l-68.457 68.457c-2.542 2.542-3.305 6.358-1.926 9.68 1.37 3.322 4.615 5.482 8.206 5.482h8.882v62.176c0 4.91 3.973 8.882 8.882 8.882h26.647v-62.176c0-4.91 3.973-8.882 8.882-8.882h35.529c4.91 0 8.882 3.973 8.882 8.882v62.176h26.647c4.91 0 8.882-3.973 8.882-8.882v-62.176h8.882c3.591 0 6.835-2.16 8.206-5.482 1.379-3.322.616-7.139-1.926-9.68l-68.457-68.457v-31.852h79.941c4.91 0 8.882-3.973 8.882-8.882v-17.765c.004-4.909-3.969-8.882-8.878-8.882zm-71.059 124.353c0 4.91-3.973 8.882-8.882 8.882h-17.765c-4.91 0-8.882-3.973-8.882-8.882 0-4.91 3.973-8.882 8.882-8.882h17.765c4.909-.001 8.882 3.972 8.882 8.882z" fill="url(#SVGID_2_)"/></g></g></g></svg>